HIERARCHY
ROOT hip
{
  OFFSET 0 0 0
  CHANNELS 6 Xposition Yposition Zposition Zrotation Yrotation Xrotation
  JOINT abdomen
  {
    OFFSET 0 20.6881 -0.73152
    CHANNELS 3 Zrotation Xrotation Yrotation
    JOINT chest
    {
      OFFSET 0 11.7043 -0.48768
      CHANNELS 3 Zrotation Xrotation Yrotation
      JOINT neck
      {
        OFFSET 0 22.1894 -2.19456
        CHANNELS 3 Zrotation Xrotation Yrotation
        JOINT head
        {
          OFFSET -0.24384 7.07133 1.2192
          CHANNELS 3 Zrotation Xrotation Yrotation
          JOINT leftEye
          {
            OFFSET 4.14528 8.04674 8.04672
            CHANNELS 3 Zrotation Xrotation Yrotation
            End Site
            {
              OFFSET 1 0 0
            }
          }
          JOINT rightEye
          {
            OFFSET -3.6576 8.04674 8.04672
            CHANNELS 3 Zrotation Xrotation Yrotation
            End Site
            {
              OFFSET 1 0 0
            }
          }
        }
      }
      JOINT rCollar
      {
        OFFSET -2.68224 19.2634 -4.8768
        CHANNELS 3 Zrotation Xrotation Yrotation
        JOINT rShldr
        {
          OFFSET -8.77824 -1.95073 1.46304
          CHANNELS 3 Zrotation Xrotation Yrotation
          JOINT rForeArm
          {
            OFFSET -28.1742 -1.7115 0.48768
            CHANNELS 3 Zrotation Xrotation Yrotation
            JOINT rHand
            {
              OFFSET -22.5879 0.773209 7.07136
              CHANNELS 3 Zrotation Xrotation Yrotation
              JOINT rThumb1
              {
                OFFSET -1.2192 -0.487915 3.41376
                CHANNELS 3 Zrotation Xrotation Yrotation
                JOINT rThumb2
                {
                  OFFSET -3.37035 -0.52449 3.41376
                  CHANNELS 3 Zrotation Xrotation Yrotation
                  End Site
                  {
                    OFFSET -1.78271 -1.18214 1.43049
                  }
                }
              }
              JOINT rIndex1
              {
                OFFSET -7.75947 0.938293 5.60832
                CHANNELS 3 Zrotation Xrotation Yrotation
                JOINT rIndex2
                {
                  OFFSET -2.54057 -0.884171 1.56538
                  CHANNELS 3 Zrotation Xrotation Yrotation
                  End Site
                  {
                    OFFSET -1.62519 -0.234802 1.16502
                  }
                }
              }
              JOINT rMid1
              {
                OFFSET -8.24714 1.18213 3.41376
                CHANNELS 3 Zrotation Xrotation Yrotation
                JOINT rMid2
                {
                  OFFSET -3.10165 -0.590103 1.0647
                  CHANNELS 3 Zrotation Xrotation Yrotation
                  End Site
                  {
                    OFFSET -2.48547 -0.328903 0.83742
                  }
                }
              }
              JOINT rRing1
              {
                OFFSET -8.82822 0.546677 1.51678
                CHANNELS 3 Zrotation Xrotation Yrotation
                JOINT rRing2
                {
                  OFFSET -2.60934 -0.819778 -0.0198488
                  CHANNELS 3 Zrotation Xrotation Yrotation
                  End Site
                  {
                    OFFSET -2.33842 -0.294052 0.168128
                  }
                }
              }
              JOINT rPinky1
              {
                OFFSET -8.27202 -0.0477905 -0.4584
                CHANNELS 3 Zrotation Xrotation Yrotation
                JOINT rPinky2
                {
                  OFFSET -1.82734 -0.647385 -0.700984
                  CHANNELS 3 Zrotation Xrotation Yrotation
                  End Site
                  {
                    OFFSET -1.69225 -0.51767 -0.607171
                  }
                }
              }
            }
          }
        }
      }
      JOINT lCollar
      {
        OFFSET 2.68224 19.2634 -4.8768
        CHANNELS 3 Zrotation Xrotation Yrotation
        JOINT lShldr
        {
          OFFSET 8.77824 -1.95073 1.46304
          CHANNELS 3 Zrotation Xrotation Yrotation
          JOINT lForeArm
          {
            OFFSET 28.1742 -1.7115 0.48768
            CHANNELS 3 Zrotation Xrotation Yrotation
            JOINT lHand
            {
              OFFSET 22.5879 0.773209 7.07136
              CHANNELS 3 Zrotation Xrotation Yrotation
              JOINT lThumb1
              {
                OFFSET 1.2192 -0.487915 3.41376
                CHANNELS 3 Zrotation Xrotation Yrotation
                JOINT lThumb2
                {
                  OFFSET 3.37035 -0.52449 3.41376
                  CHANNELS 3 Zrotation Xrotation Yrotation
                  End Site
                  {
                    OFFSET 1.78271 -1.18214 1.43049
                  }
                }
              }
              JOINT lIndex1
              {
                OFFSET 7.75947 0.938293 5.60832
                CHANNELS 3 Zrotation Xrotation Yrotation
                JOINT lIndex2
                {
                  OFFSET 2.54057 -0.884171 1.56538
                  CHANNELS 3 Zrotation Xrotation Yrotation
                  End Site
                  {
                    OFFSET 1.62519 -0.234802 1.16502
                  }
                }
              }
              JOINT lMid1
              {
                OFFSET 8.24714 1.18213 3.41376
                CHANNELS 3 Zrotation Xrotation Yrotation
                JOINT lMid2
                {
                  OFFSET 3.10165 -0.590103 1.0647
                  CHANNELS 3 Zrotation Xrotation Yrotation
                  End Site
                  {
                    OFFSET 2.48547 -0.328903 0.83742
                  }
                }
              }
              JOINT lRing1
              {
                OFFSET 8.82822 0.546677 1.51678
                CHANNELS 3 Zrotation Xrotation Yrotation
                JOINT lRing2
                {
                  OFFSET 2.60934 -0.819778 -0.0198488
                  CHANNELS 3 Zrotation Xrotation Yrotation
                  End Site
                  {
                    OFFSET 2.33842 -0.294052 0.168128
                  }
                }
              }
              JOINT lPinky1
              {
                OFFSET 8.27202 -0.0477905 -0.4584
                CHANNELS 3 Zrotation Xrotation Yrotation
                JOINT lPinky2
                {
                  OFFSET 1.82734 -0.647385 -0.700984
                  CHANNELS 3 Zrotation Xrotation Yrotation
                  End Site
                  {
                    OFFSET 1.69225 -0.51767 -0.607171
                  }
                }
              }
            }
          }
        }
      }
    }
  }
  JOINT rButtock
  {
    OFFSET -8.77824 4.35084 1.2192
    CHANNELS 3 Zrotation Xrotation Yrotation
    JOINT rThigh
    {
      OFFSET 0 -1.70687 -2.19456
      CHANNELS 3 Zrotation Xrotation Yrotation
      JOINT rShin
      {
        OFFSET 0 -36.8199 0.73152
        CHANNELS 3 Zrotation Xrotation Yrotation
        JOINT rFoot
        {
          OFFSET 0.73152 -45.1104 -5.12064
          CHANNELS 3 Zrotation Xrotation Yrotation
          End Site
          {
            OFFSET -1.1221 -3.69964 12.103
          }
        }
      }
    }
  }
  JOINT lButtock
  {
    OFFSET 8.77824 4.35084 1.2192
    CHANNELS 3 Zrotation Xrotation Yrotation
    JOINT lThigh
    {
      OFFSET 0 -1.70687 -2.19456
      CHANNELS 3 Zrotation Xrotation Yrotation
      JOINT lShin
      {
        OFFSET 0 -36.8199 0.73152
        CHANNELS 3 Zrotation Xrotation Yrotation
        JOINT lFoot
        {
          OFFSET -0.73152 -45.1104 -5.12064
          CHANNELS 3 Zrotation Xrotation Yrotation
          End Site
          {
            OFFSET 1.1221 -3.69964 12.103
          }
        }
      }
    }
  }
}
MOTION
Frames:	4
Frame Time:	0.00833333
135.569 85.1731 9.85652 0.0 0.0 0.0 0.512928 -0.00341807 0.0146931 0.141685 -0.00540187 0.0245501 2.59464e-15 -2.38542e-15 -1.2424e-17 7.81162e-15 -6.36111e-15 -2.95071e-17 -0.0 0.0 0.0 -0.0 0.0 0.0 1.39018e-15 -6.21202e-18 1.98785e-16 2.97992e-14 -8.07563e-17 7.95139e-16 4.68834e-13 -1.4233e-13 3.18055e-15 5.36029e-12 1.2193e-13 -1.27222e-14 1.26444e-11 -4.78856e-14 -1.27222e-14 2.18337e-11 -8.26944e-14 -3.33958e-14 1.26507e-11 -4.57205e-14 -1.59028e-14 7.73091 5.47488 0.417314 1.26444e-11 -4.78077e-14 -9.54166e-15 2.90554 0.965183 0.102902 1.26555e-11 -4.73108e-14 -1.51076e-14 10.2786 0.731801 0.0259123 1.26417e-11 -4.81059e-14 -6.36111e-15 2.22167 -0.733487 -0.20892 1.39289e-15 -5.04727e-18 -1.98785e-16 2.4283e-14 -2.79541e-16 -7.95139e-16 4.68188e-13 1.33981e-13 -1.27222e-14 5.3595e-12 -1.73415e-13 9.54166e-15 1.26452e-11 -8.54649e-14 -1.59028e-14 2.18405e-11 -1.46306e-13 -1.51076e-14 1.26383e-11 -8.34896e-14 -3.18055e-15 -7.73091 5.47488 -0.417314 1.26442e-11 -8.47817e-14 -1.27222e-14 -2.90554 0.965183 -0.102902 1.26349e-11 -8.50798e-14 -1.43125e-14 -10.2786 0.731801 -0.0259123 1.26449e-11 -8.66701e-14 -2.22639e-14 -2.22167 -0.733487 0.20892 -2.03217e-16 0.0 -3.88251e-19 0.860086 -4.41145 -0.0729733 -0.00213179 2.43939 -0.0112582 -0.474523 1.97259 0.0938485 2.03217e-16 0.0 3.88251e-19 -0.0776141 -2.42096 0.0232527 0.00766725 -1.16603 0.0659947 0.465699 3.58744 -0.125204
127.466 84.4772 2.63624 -161.021 -84.2614 157.823 0.181089 3.52022 0.252643 0.163097 0.689528 0.0579901 0.18009 2.93936 -1.88624 1.24374 -7.82821 -3.49698 -0.0 0.0 0.0 -0.0 0.0 0.0 6.32212e-15 8.1268e-14 2.10704e-14 20.3477 17.3356 9.09125 1.97262 15.2064 -41.8658 0.00370801 -1.35089 -0.189665 1.23946e-10 4.47706e-10 1.78008e-10 2.13842e-10 7.76127e-10 3.0886e-10 1.23953e-10 4.47708e-10 1.78e-10 7.73091 5.47488 0.417314 1.23945e-10 4.47706e-10 1.7801e-10 2.90554 0.965183 0.102902 1.23956e-10 4.47706e-10 1.78006e-10 10.2786 0.731801 0.0259123 1.23943e-10 4.47706e-10 1.78016e-10 2.22167 -0.733487 -0.20892 6.29801e-15 8.12701e-14 2.07714e-14 -20.096 12.0657 -9.23077 -3.18046 14.1034 43.2117 -0.00260324 -1.13193 0.158971 1.59781e-10 -7.70069e-11 3.47535e-11 2.75574e-10 -1.32436e-10 6.03883e-11 1.59774e-10 -7.70058e-11 3.47634e-11 -7.73091 5.47488 -0.417314 1.5978e-10 -7.70064e-11 3.47593e-11 -2.90554 0.965183 -0.102902 1.59769e-10 -7.7007e-11 3.47567e-11 -10.2786 0.731801 -0.0259123 1.59783e-10 -7.70078e-11 3.47489e-11 -2.22167 -0.733487 0.20892 -2.03217e-16 0.0 -3.88251e-19 1.42052 -5.27628 2.66691 0.0356685 8.51288 0.150198 -1.57676 -3.95911 -8.17899 2.03217e-16 0.0 3.88251e-19 1.56122 -3.43702 -3.2842 -0.0245084 6.03927 -0.102936 1.19604 -1.83854 6.34155
127.47 84.4714 2.64093 -161.368 -84.2576 158.189 -0.204909 7.23521 0.503192 0.18776 1.42321 0.0922553 0.559825 6.03872 -3.92918 1.51607 -16.0022 -7.46984 -0.0 0.0 0.0 -0.0 0.0 0.0 1.27123e-14 1.40321e-13 4.27698e-14 34.8968 34.1153 21.6882 17.851 4.95116 -84.3304 -0.00211061 -2.78085 -0.390788 2.46882e-10 9.22092e-10 3.62648e-10 4.25995e-10 1.59845e-09 6.29245e-10 2.46889e-10 9.22094e-10 3.62636e-10 7.73091 5.47488 0.417314 2.46881e-10 9.22092e-10 3.62648e-10 2.90554 0.965183 0.102902 2.4689e-10 9.22092e-10 3.62646e-10 10.2786 0.731801 0.0259123 2.46878e-10 9.22093e-10 3.62657e-10 2.22167 -0.733487 -0.20892 1.26584e-14 1.40324e-13 4.25772e-14 -36.8578 23.7517 -20.3388 -19.0621 2.77789 86.5806 0.00148274 -2.33055 0.327516 3.21219e-10 -1.64037e-10 7.6162e-11 5.53954e-10 -2.82162e-10 1.32333e-10 3.21213e-10 -1.64037e-10 7.61687e-11 -7.73091 5.47488 -0.417314 3.21219e-10 -1.64037e-10 7.61707e-11 -2.90554 0.965183 -0.102902 3.21207e-10 -1.64038e-10 7.6167e-11 -10.2786 0.731801 -0.0259123 3.21225e-10 -1.64038e-10 7.61594e-11 -2.22167 -0.733487 0.20892 -2.03217e-16 0.0 -3.88251e-19 2.10629 -6.16444 5.59395 0.0373156 14.9126 0.328386 -4.60647 -9.86814 -17.1633 2.03217e-16 0.0 3.88251e-19 3.16212 -4.48499 -6.80399 -0.0112801 13.6392 -0.288352 3.29942 -7.3949 13.2958
127.495 84.4624 2.60526 -160.311 -84.142 157.14 -0.571695 10.5667 0.739657 0.203484 2.07939 0.12494 1.12567 8.77962 -5.71851 0.67082 -23.1192 -11.3121 -0.0 0.0 0.0 -0.0 0.0 0.0 1.6186e-14 2.43817e-13 6.28136e-14 39.3566 45.5719 38.814 22.6353 -25.9326 -106.2 -0.0157637 -4.0525 -0.570262 3.46549e-10 1.34321e-09 5.3405e-10 5.97859e-10 2.32855e-09 9.26647e-10 3.46558e-10 1.34321e-09 5.34033e-10 7.73091 5.47488 0.417314 3.46548e-10 1.34321e-09 5.34048e-10 2.90554 0.965183 0.102902 3.46556e-10 1.34321e-09 5.34047e-10 10.2786 0.731801 0.0259123 3.46545e-10 1.34321e-09 5.34059e-10 2.22167 -0.733487 -0.20892 1.61082e-14 2.4382e-13 6.27119e-14 -47.4114 32.1139 -32.5059 -22.5761 -28.6419 110.723 0.0110619 -3.39569 0.477657 4.54052e-10 -2.3085e-10 1.04292e-10 7.8304e-10 -3.97014e-10 1.81195e-10 4.54046e-10 -2.3085e-10 1.04296e-10 -7.73091 5.47488 -0.417314 4.54051e-10 -2.30849e-10 1.04303e-10 -2.90554 0.965183 -0.102902 4.54038e-10 -2.30851e-10 1.04299e-10 -10.2786 0.731801 -0.0259123 4.54059e-10 -2.3085e-10 1.04291e-10 -2.22167 -0.733487 0.20892 -2.03217e-16 0.0 -3.88251e-19 2.78982 -6.95237 8.17283 0.00241603 20.6592 0.500299 -8.881 -14.456 -25.5289 2.03217e-16 0.0 3.88251e-19 4.48791 -5.40442 -9.92589 0.0450532 20.4493 -0.468586 6.32027 -12.001 19.7128
